<?xml version="1.0" standalone="no"?>
<!DOCTYPE svg PUBLIC "-//W3C//DTD SVG 20010904//EN"
 "http://www.w3.org/TR/2001/REC-SVG-20010904/DTD/svg10.dtd">
<svg version="1.0" xmlns="http://www.w3.org/2000/svg"
 width="24.000000pt" height="24.000000pt" viewBox="0 0 24.000000 24.000000"
 preserveAspectRatio="xMidYMid meet">

<g transform="translate(0.000000,24.000000) scale(0.100000,-0.100000)"
fill="#000000" stroke="none">
<path d="M120 185 c0 -25 5 -46 10 -46 36 -6 36 -7 39 44 1 11 9 17 27 17 23
0 25 -3 22 -42 -3 -41 -3 -41 -43 -41 -22 1 -48 4 -57 8 -9 3 -25 2 -36 -4
-13 -7 -19 -7 -19 2 0 7 -3 23 -7 37 -4 14 -4 20 1 14 4 -6 18 -16 31 -23 20
-11 22 -9 22 14 0 29 -25 43 -49 28 -9 -6 -16 -21 -16 -34 0 -13 -8 -27 -18
-31 -13 -6 -17 -19 -17 -64 0 -32 3 -55 6 -51 3 3 6 28 6 56 -1 53 5 59 38 39
17 -11 22 -10 29 1 5 8 16 11 25 8 20 -8 21 -27 1 -27 -8 0 -15 -7 -15 -15 0
-19 -14 -19 -30 0 -7 8 -17 15 -23 15 -6 0 -7 -3 -4 -7 4 -3 2 -12 -4 -19 -15
-19 34 -47 86 -50 40 -1 43 1 52 30 7 23 15 31 31 30 12 0 22 3 22 8 0 5 -16
8 -35 7 -19 -2 -40 2 -47 10 -11 10 -5 12 32 9 l45 -3 3 63 3 62 -56 0 -55 0
0 -45z m83 28 c-13 -2 -35 -2 -50 0 -16 2 -5 4 22 4 28 0 40 -2 28 -4z m-46
-19 c-3 -3 -12 -4 -19 -1 -8 3 -5 6 6 6 11 1 17 -2 13 -5z m-57 -20 c0 -17
-22 -14 -28 4 -2 7 3 12 12 12 9 0 16 -7 16 -16z m46 -14 c0 -12 -4 -16 -9
-11 -5 5 -6 14 -3 20 10 15 12 14 12 -9z m14 -89 c16 -30 12 -36 -10 -16 -21
19 -26 35 -10 35 5 0 14 -9 20 -19z m-50 -19 c37 6 40 -7 4 -16 -34 -9 -64 1
-64 21 0 13 3 13 15 3 8 -7 28 -10 45 -8z"/>
<path d="M185 180 c-3 -5 -2 -10 4 -10 5 0 13 5 16 10 3 6 2 10 -4 10 -5 0
-13 -4 -16 -10z"/>
<path d="M201 33 c-10 -26 -10 -27 4 -9 8 11 15 23 15 28 0 15 -7 8 -19 -19z"/>
</g>
</svg>
