<?xml version="1.0" standalone="no"?>
<!DOCTYPE svg PUBLIC "-//W3C//DTD SVG 20010904//EN"
 "http://www.w3.org/TR/2001/REC-SVG-20010904/DTD/svg10.dtd">
<svg version="1.0" xmlns="http://www.w3.org/2000/svg"
 width="24.000000pt" height="24.000000pt" viewBox="0 0 24.000000 24.000000"
 preserveAspectRatio="xMidYMid meet">

<g transform="translate(0.000000,24.000000) scale(0.100000,-0.100000)"
fill="#000000" stroke="none">
<path d="M113 233 c37 -4 53 -23 20 -23 -15 0 -16 -2 -3 -10 19 -12 35 3 27
24 -5 11 -18 15 -44 14 l-38 -1 38 -4z"/>
<path d="M77 190 c-3 -11 -3 -20 -1 -20 2 0 8 9 14 20 6 11 7 20 2 20 -6 0
-12 -9 -15 -20z"/>
<path d="M149 139 c-1 -35 -2 -39 -8 -19 -7 23 -8 22 -12 -12 -6 -43 -4 -44
18 -22 10 9 16 31 15 51 -2 52 -12 54 -13 2z"/>
<path d="M79 145 c-9 -14 1 -75 12 -75 15 0 10 -18 -7 -24 -20 -8 -42 9 -46
34 -3 16 -6 15 -23 -8 -11 -17 -13 -22 -4 -15 13 11 20 9 37 -10 27 -29 17
-44 -12 -20 -21 18 -21 18 -2 -4 l19 -23 31 31 c28 27 31 35 26 72 l-5 42 -4
-35 -5 -35 -5 40 c-3 22 -9 36 -12 30z"/>
<path d="M200 83 c0 -32 -24 -47 -52 -32 -19 10 -18 8 7 -19 l29 -31 28 26
c27 26 27 27 11 47 -10 12 -19 23 -20 25 -2 2 -3 -5 -3 -16z m9 -49 c-12 -13
-26 -21 -31 -18 -5 4 0 17 13 30 12 13 26 21 31 18 5 -4 0 -17 -13 -30z"/>
</g>
</svg>
