<?xml version="1.0" encoding="UTF-8" standalone="no"?>
<svg
   xmlns:dc="http://purl.org/dc/elements/1.1/"
   xmlns:cc="http://creativecommons.org/ns#"
   xmlns:rdf="http://www.w3.org/1999/02/22-rdf-syntax-ns#"
   xmlns:svg="http://www.w3.org/2000/svg"
   xmlns="http://www.w3.org/2000/svg"
   viewBox="0 0 428.37332 798.56"
   height="798.56"
   width="428.37332"
   xml:space="preserve"
   id="svg2"
   version="1.1"><metadata
     id="metadata8"><rdf:RDF><cc:Work
         rdf:about=""><dc:format>image/svg+xml</dc:format><dc:type
           rdf:resource="http://purl.org/dc/dcmitype/StillImage" /></cc:Work></rdf:RDF></metadata><defs
     id="defs6" /><g
     transform="matrix(1.3333333,0,0,-1.3333333,0,798.56)"
     id="g10"><g
       transform="scale(0.1)"
       id="g12"><path
         id="path14"
         style="fill:#ea232d;fill-opacity:1;fill-rule:nonzero;stroke:none"
         d="m 2019.75,5987.57 c 93.98,-107.01 125,-260.01 97.98,-398.01 -29,-155 -115,-292 -215.99,-410 -81,-95 -174.01,-179 -271,-257 -113,-91 -224,-189 -295,-317 -60,-104 -74,-232 -33,-345 67,-194 223,-338 308,-521 -94,83 -186,169 -272,260 -90,96 -175,198 -231,318 -38,84 -55,182 -26,271 29,91 94,164 159,232 181,181 404.01,314 581,498 98.01,101 179,222 206.99,361 23.01,102 12.01,207 -8.98,308.01 v 0" /><path
         id="path16"
         style="fill:none;stroke:#ea232d;stroke-width:0.9375;stroke-linecap:butt;stroke-linejoin:miter;stroke-miterlimit:10;stroke-dasharray:none;stroke-opacity:1"
         d="m 2019.75,5987.57 c 93.98,-107.01 125,-260.01 97.98,-398.01 -29,-155 -115,-292 -215.99,-410 -81,-95 -174.01,-179 -271,-257 -113,-91 -224,-189 -295,-317 -60,-104 -74,-232 -33,-345 67,-194 223,-338 308,-521 -94,83 -186,169 -272,260 -90,96 -175,198 -231,318 -38,84 -55,182 -26,271 29,91 94,164 159,232 181,181 404.01,314 581,498 98.01,101 179,222 206.99,361 23.01,102 12.01,207 -8.98,308.01 z" /><path
         id="path18"
         style="fill:#ea232d;fill-opacity:1;fill-rule:nonzero;stroke:none"
         d="m 1871.74,4848.56 c 194,143 420.99,234 650.99,300 -181.99,-116 -371.99,-222 -529,-371 -56.99,-55 -111,-118 -136,-195 -19,-57 -10.99,-120 12.02,-174 41.99,-96 112.98,-174 166.99,-262 45.99,-75 54,-171 19,-252 -53.01,-119 -157.01,-206 -265,-275 -14,-8 -25.99,-23 -43.01,-25 72.02,65 128.01,157 126,256 -1.99,74 -42.99,139 -91,192 -99,118 -181.99,268 -164.99,427 17.01,159 130.99,287 254,379 v 0" /><path
         id="path20"
         style="fill:none;stroke:#ea232d;stroke-width:0.9375;stroke-linecap:butt;stroke-linejoin:miter;stroke-miterlimit:10;stroke-dasharray:none;stroke-opacity:1"
         d="m 1871.74,4848.56 c 194,143 420.99,234 650.99,300 -181.99,-116 -371.99,-222 -529,-371 -56.99,-55 -111,-118 -136,-195 -19,-57 -10.99,-120 12.02,-174 41.99,-96 112.98,-174 166.99,-262 45.99,-75 54,-171 19,-252 -53.01,-119 -157.01,-206 -265,-275 -14,-8 -25.99,-23 -43.01,-25 72.02,65 128.01,157 126,256 -1.99,74 -42.99,139 -91,192 -99,118 -181.99,268 -164.99,427 17.01,159 130.99,287 254,379 z" /><path
         id="path22"
         style="fill:#3471c1;fill-opacity:1;fill-rule:nonzero;stroke:none"
         d="m 2559.75,3692.56 c 41.99,51 108.98,64 170,72 105.99,14 218.98,-13 298.98,-86 66.02,-59 103.01,-151 89,-240 -15,-103 -84,-189 -161.99,-254 -140.99,-113 -315,-179 -489,-223.01 10,11.02 20.99,21.02 34,29.01 131.99,71 262.99,154 360,270 59.01,72 105,166 86,261 -20,110 -126.99,190 -236,196 -52.01,5 -100.99,-15 -150.99,-25 v 0" /><path
         id="path24"
         style="fill:none;stroke:#3471c1;stroke-width:0.9375;stroke-linecap:butt;stroke-linejoin:miter;stroke-miterlimit:10;stroke-dasharray:none;stroke-opacity:1"
         d="m 2559.75,3692.56 c 41.99,51 108.98,64 170,72 105.99,14 218.98,-13 298.98,-86 66.02,-59 103.01,-151 89,-240 -15,-103 -84,-189 -161.99,-254 -140.99,-113 -315,-179 -489,-223.01 10,11.02 20.99,21.02 34,29.01 131.99,71 262.99,154 360,270 59.01,72 105,166 86,261 -20,110 -126.99,190 -236,196 -52.01,5 -100.99,-15 -150.99,-25 z" /><path
         id="path26"
         style="fill:#3471c1;fill-opacity:1;fill-rule:nonzero;stroke:none"
         d="m 549.734,3601.56 c 184,79 384,130 585.006,127 -117,-34 -237.002,-63 -347.002,-115 -26,-14 -56,-27 -71,-54 -8.004,-21 14,-35 30,-42 67.996,-28 142.996,-32 216,-39 256.002,-17 513.002,-7 768.002,9 251.99,16 501.99,50 751,90 -55,-26 -111,-52 -161.99,-85 -26.02,-18 -58.01,-23 -87.02,-30 -305.99,-68 -619.99,-89 -931.99,-94 -121,-1 -241,1 -361.006,9 -133.996,9 -268.996,19 -400,54 -37.996,11 -77.996,23 -107.996,50 -15,12 -15,36 -2.004,50 33.004,34 79,50 120,70 v 0" /><path
         id="path28"
         style="fill:none;stroke:#3471c1;stroke-width:0.9375;stroke-linecap:butt;stroke-linejoin:miter;stroke-miterlimit:10;stroke-dasharray:none;stroke-opacity:1"
         d="m 549.734,3601.56 c 184,79 384,130 585.006,127 -117,-34 -237.002,-63 -347.002,-115 -26,-14 -56,-27 -71,-54 -8.004,-21 14,-35 30,-42 67.996,-28 142.996,-32 216,-39 256.002,-17 513.002,-7 768.002,9 251.99,16 501.99,50 751,90 -55,-26 -111,-52 -161.99,-85 -26.02,-18 -58.01,-23 -87.02,-30 -305.99,-68 -619.99,-89 -931.99,-94 -121,-1 -241,1 -361.006,9 -133.996,9 -268.996,19 -400,54 -37.996,11 -77.996,23 -107.996,50 -15,12 -15,36 -2.004,50 33.004,34 79,50 120,70 z" /><path
         id="path30"
         style="fill:#3471c1;fill-opacity:1;fill-rule:nonzero;stroke:none"
         d="m 785.738,3174.56 c 52,41 113.996,64 176,86 -20,-24 -48.004,-47 -50,-80 -1,-21 16,-37 32.996,-47 33.004,-17 70.006,-23 107.006,-28 192,-20 386,-31 580,-18 176.99,9 353.01,38 528.01,69 47.98,-45 105,-76 165,-103 -211.02,-62 -428.01,-98 -646.02,-114.99 -205.99,-14.01 -414.99,-13.01 -619.99,20 -81.002,15 -164.006,31.99 -238.002,69.99 -30,16 -64,37 -73,72 -6,30 15.996,57 38,74 v 0" /><path
         id="path32"
         style="fill:none;stroke:#3471c1;stroke-width:0.9375;stroke-linecap:butt;stroke-linejoin:miter;stroke-miterlimit:10;stroke-dasharray:none;stroke-opacity:1"
         d="m 785.738,3174.56 c 52,41 113.996,64 176,86 -20,-24 -48.004,-47 -50,-80 -1,-21 16,-37 32.996,-47 33.004,-17 70.006,-23 107.006,-28 192,-20 386,-31 580,-18 176.99,9 353.01,38 528.01,69 47.98,-45 105,-76 165,-103 -211.02,-62 -428.01,-98 -646.02,-114.99 -205.99,-14.01 -414.99,-13.01 -619.99,20 -81.002,15 -164.006,31.99 -238.002,69.99 -30,16 -64,37 -73,72 -6,30 15.996,57 38,74 z" /><path
         id="path34"
         style="fill:#3471c1;fill-opacity:1;fill-rule:nonzero;stroke:none"
         d="m 901.738,2738.57 c 46,36.99 103.002,55.99 159.002,71.99 -18,-16.99 -50,-37.99 -36,-66.99 27,-35 77,-39.01 117,-48.01 169,-21 340,-35 509,-21.99 127.99,7.98 254.01,30.99 379.01,52.98 71.99,-41.99 146.99,-77.98 223.98,-110 -117.99,-52.98 -245,-86.99 -371.99,-110.99 -214.01,-37.99 -435,-42.99 -650,-9.01 -95,17.02 -192,39.01 -278.006,86.02 -32.996,18.98 -67.996,41 -81.996,77.99 -11,29 6.996,60 30,78.01 v 0" /><path
         id="path36"
         style="fill:none;stroke:#3471c1;stroke-width:0.9375;stroke-linecap:butt;stroke-linejoin:miter;stroke-miterlimit:10;stroke-dasharray:none;stroke-opacity:1"
         d="m 901.738,2738.57 c 46,36.99 103.002,55.99 159.002,71.99 -18,-16.99 -50,-37.99 -36,-66.99 27,-35 77,-39.01 117,-48.01 169,-21 340,-35 509,-21.99 127.99,7.98 254.01,30.99 379.01,52.98 71.99,-41.99 146.99,-77.98 223.98,-110 -117.99,-52.98 -245,-86.99 -371.99,-110.99 -214.01,-37.99 -435,-42.99 -650,-9.01 -95,17.02 -192,39.01 -278.006,86.02 -32.996,18.98 -67.996,41 -81.996,77.99 -11,29 6.996,60 30,78.01 z" /><path
         id="path38"
         style="fill:#3471c1;fill-opacity:1;fill-rule:nonzero;stroke:none"
         d="m 346.738,2455.56 c 91.996,30.99 186.996,55.99 284,59 38.996,1 78.996,-0.99 112.996,-20.99 -115.996,-7.02 -231.996,-36 -335.996,-89.01 -23.004,-13.01 -49.004,-28.01 -58.004,-55 0,-30.99 35,-40.99 58.004,-50.99 145,-54.01 300,-71 451.996,-87.02 453.006,-37.98 908.996,-27.98 1362.006,13.01 170.99,19.01 343.01,38.01 509,85 52.99,18.01 112.99,36 147.99,83.01 21.02,27.99 7.01,62.99 -13.98,86.99 33.98,-19 81.99,-43.01 75,-89 -13.01,-47.99 -62.02,-72.99 -102.02,-96 -127.98,-65 -269,-98.01 -409,-126.99 -406.99,-80 -823.99,-98.01 -1237.99,-86.02 -312.006,11.02 -624.002,41.02 -932.006,94.01 -55,13.01 -116.996,24 -156.996,67.01 -25.9997,30 -3.0036,71.99 21.996,93.98 63.004,58.01 144.004,90 223.004,119.01 v 0" /><path
         id="path40"
         style="fill:none;stroke:#3471c1;stroke-width:0.9375;stroke-linecap:butt;stroke-linejoin:miter;stroke-miterlimit:10;stroke-dasharray:none;stroke-opacity:1"
         d="m 346.738,2455.56 c 91.996,30.99 186.996,55.99 284,59 38.996,1 78.996,-0.99 112.996,-20.99 -115.996,-7.02 -231.996,-36 -335.996,-89.01 -23.004,-13.01 -49.004,-28.01 -58.004,-55 0,-30.99 35,-40.99 58.004,-50.99 145,-54.01 300,-71 451.996,-87.02 453.006,-37.98 908.996,-27.98 1362.006,13.01 170.99,19.01 343.01,38.01 509,85 52.99,18.01 112.99,36 147.99,83.01 21.02,27.99 7.01,62.99 -13.98,86.99 33.98,-19 81.99,-43.01 75,-89 -13.01,-47.99 -62.02,-72.99 -102.02,-96 -127.98,-65 -269,-98.01 -409,-126.99 -406.99,-80 -823.99,-98.01 -1237.99,-86.02 -312.006,11.02 -624.002,41.02 -932.006,94.01 -55,13.01 -116.996,24 -156.996,67.01 -25.9997,30 -3.0036,71.99 21.996,93.98 63.004,58.01 144.004,90 223.004,119.01 z" /><path
         id="path42"
         style="fill:#3471c1;fill-opacity:1;fill-rule:nonzero;stroke:none"
         d="m 2838.73,2113.57 c 101.02,35 209,71.99 284,151.99 -12.98,-86.99 -87.98,-146.99 -161.99,-186 -142.01,-74 -300.99,-108.01 -459,-135.99 -334.01,-53.01 -673.01,-66 -1012,-60 -231,6.99 -464,15.99 -691.006,64 -54,15 -111.996,25 -159,56.99 202.004,-34 407.006,-48.01 612.006,-55.99 337,-10 675,2.98 1010,45 194,26.99 389,60 576.99,120 v 0" /><path
         id="path44"
         style="fill:none;stroke:#3471c1;stroke-width:0.9375;stroke-linecap:butt;stroke-linejoin:miter;stroke-miterlimit:10;stroke-dasharray:none;stroke-opacity:1"
         d="m 2838.73,2113.57 c 101.02,35 209,71.99 284,151.99 -12.98,-86.99 -87.98,-146.99 -161.99,-186 -142.01,-74 -300.99,-108.01 -459,-135.99 -334.01,-53.01 -673.01,-66 -1012,-60 -231,6.99 -464,15.99 -691.006,64 -54,15 -111.996,25 -159,56.99 202.004,-34 407.006,-48.01 612.006,-55.99 337,-10 675,2.98 1010,45 194,26.99 389,60 576.99,120 z" /><path
         id="path46"
         style="fill:#ea232d;fill-opacity:1;fill-rule:nonzero;stroke:none"
         d="m 203.734,630.559 c 1,328.011 -0.996,655.991 1,985.001 68.004,-1.99 136.004,0 204,-1.99 -0.996,-367.02 0,-735 -0.996,-1103.011 -2,-102.989 -4.004,-211 -54.004,-302.989 C 298.734,109.559 200.738,40.5586 96.7383,0.558594 63.7344,36.5508 33.7344,74.5586 0.738281,110.559 v 0 c 83.996119,49 167.995719,119 187.995719,220 19.004,99 13.004,200 15,300 v 0" /><path
         id="path48"
         style="fill:none;stroke:#ea232d;stroke-width:0.9375;stroke-linecap:butt;stroke-linejoin:miter;stroke-miterlimit:10;stroke-dasharray:none;stroke-opacity:1"
         d="m 203.734,630.559 c 1,328.011 -0.996,655.991 1,985.001 68.004,-1.99 136.004,0 204,-1.99 -0.996,-367.02 0,-735 -0.996,-1103.011 -2,-102.989 -4.004,-211 -54.004,-302.989 C 298.734,109.559 200.738,40.5586 96.7383,0.558594 63.7344,36.5508 33.7344,74.5586 0.738281,110.559 v 0 c 83.996119,49 167.995719,119 187.995719,220 19.004,99 13.004,200 15,300 z" /><path
         id="path50"
         style="fill:#ea232d;fill-opacity:1;fill-rule:nonzero;stroke:none"
         d="m 845.738,756.551 c -44,-13.981 -85,-45.992 -97.004,-91.992 -14,-50.989 -10,-110.989 23.004,-154 31.996,-41.989 90,-51.989 140,-46 70,8.011 131.002,48.011 185.002,91 0,75 -1,149 0,224 -84,0 -170.002,5 -251.002,-23.008 z m -248,464.009 c 135,58.01 285,88.01 432.002,72.01 76,-9 155,-37.01 204,-98.01 41,-51.99 56,-119 55,-184 0,-224.009 0,-446.99 0,-671.001 -50,0 -100,0 -151,0 -5,33.011 -10,66.992 -14,101 -57,-45 -118,-87.989 -189.006,-106 -81,-20.989 -170,-19 -248.996,11.992 -61.004,25 -109,80 -126.004,144.008 -25,93.011 -11.996,202.011 54,277.011 59.004,68.981 148.004,102.989 236,118.981 81.004,16.019 164.006,16.019 247.006,16.019 -2,62.989 10,131.99 -26,187.99 -29,43.01 -82.006,60 -131.006,63.01 -106.996,9 -212.996,-18.01 -313.996,-53.01 -10,40 -19,80 -28,120" /><path
         id="path52"
         style="fill:none;stroke:#ea232d;stroke-width:0.9375;stroke-linecap:butt;stroke-linejoin:miter;stroke-miterlimit:10;stroke-dasharray:none;stroke-opacity:1"
         d="m 845.738,756.551 c -44,-13.981 -85,-45.992 -97.004,-91.992 -14,-50.989 -10,-110.989 23.004,-154 31.996,-41.989 90,-51.989 140,-46 70,8.011 131.002,48.011 185.002,91 0,75 -1,149 0,224 -84,0 -170.002,5 -251.002,-23.008 z m -248,464.009 c 135,58.01 285,88.01 432.002,72.01 76,-9 155,-37.01 204,-98.01 41,-51.99 56,-119 55,-184 0,-224.009 0,-446.99 0,-671.001 -50,0 -100,0 -151,0 -5,33.011 -10,66.992 -14,101 -57,-45 -118,-87.989 -189.006,-106 -81,-20.989 -170,-19 -248.996,11.992 -61.004,25 -109,80 -126.004,144.008 -25,93.011 -11.996,202.011 54,277.011 59.004,68.981 148.004,102.989 236,118.981 81.004,16.019 164.006,16.019 247.006,16.019 -2,62.989 10,131.99 -26,187.99 -29,43.01 -82.006,60 -131.006,63.01 -106.996,9 -212.996,-18.01 -313.996,-53.01 -10,40 -19,80 -28,120" /><path
         id="path54"
         style="fill:#ea232d;fill-opacity:1;fill-rule:nonzero;stroke:none"
         d="m 2600.74,755.559 c -42.01,-14.008 -80.99,-46 -94,-90 -14.01,-51 -10,-111 21.99,-155 33.01,-42.989 92.01,-51.989 143.01,-46 69,10 131.99,48.011 184,94.011 -2.01,72.981 -0.99,146.989 -0.99,220.989 -85,0 -172.02,5 -254.01,-24 z m -245,465.001 c 136,58.01 286,89 434.01,72.01 73.98,-9 150,-36.02 198.98,-94 46.02,-55 60,-128.01 59,-198.01 -0.99,-221.001 1,-441.001 -1.99,-661.99 -50,1.989 -100,-1 -150,1.989 -5,34 -9,67.011 -15,100 -70,-60 -154,-109.008 -249,-116.989 -86.99,-8.011 -185,2.981 -253.01,65 -71,65.989 -82.99,172.981 -65,264 17.01,83.981 80,152.989 156.02,190 118.98,57.989 255,61 385,60 -2.02,61 8.98,126 -22.02,181 -24,44 -75,64 -122.98,69 -111.02,11.99 -222.02,-16.02 -326.02,-52.01 -8.98,40 -18.98,80 -27.99,120" /><path
         id="path56"
         style="fill:none;stroke:#ea232d;stroke-width:0.9375;stroke-linecap:butt;stroke-linejoin:miter;stroke-miterlimit:10;stroke-dasharray:none;stroke-opacity:1"
         d="m 2600.74,755.559 c -42.01,-14.008 -80.99,-46 -94,-90 -14.01,-51 -10,-111 21.99,-155 33.01,-42.989 92.01,-51.989 143.01,-46 69,10 131.99,48.011 184,94.011 -2.01,72.981 -0.99,146.989 -0.99,220.989 -85,0 -172.02,5 -254.01,-24 z m -245,465.001 c 136,58.01 286,89 434.01,72.01 73.98,-9 150,-36.02 198.98,-94 46.02,-55 60,-128.01 59,-198.01 -0.99,-221.001 1,-441.001 -1.99,-661.99 -50,1.989 -100,-1 -150,1.989 -5,34 -9,67.011 -15,100 -70,-60 -154,-109.008 -249,-116.989 -86.99,-8.011 -185,2.981 -253.01,65 -71,65.989 -82.99,172.981 -65,264 17.01,83.981 80,152.989 156.02,190 118.98,57.989 255,61 385,60 -2.02,61 8.98,126 -22.02,181 -24,44 -75,64 -122.98,69 -111.02,11.99 -222.02,-16.02 -326.02,-52.01 -8.98,40 -18.98,80 -27.99,120" /><path
         id="path58"
         style="fill:#ea232d;fill-opacity:1;fill-rule:nonzero;stroke:none"
         d="m 1402.74,1280.56 c 70,0 140,0 210,0 40.99,-131.99 80.99,-262.99 122.01,-395.001 23.98,-81 53.98,-161 70.99,-244.008 9.01,-36.992 16.99,-75 27.99,-110.992 86.02,243.011 152.01,494.001 186.02,750.001 67.98,0 135.99,0 203.98,0 -58.98,-324.009 -151.99,-642.99 -291.99,-941.001 -80,0 -160,0 -240,0 -96,314.011 -193,626.992 -289,941.001 v 0" /><path
         id="path60"
         style="fill:none;stroke:#ea232d;stroke-width:0.9375;stroke-linecap:butt;stroke-linejoin:miter;stroke-miterlimit:10;stroke-dasharray:none;stroke-opacity:1"
         d="m 1402.74,1280.56 c 70,0 140,0 210,0 40.99,-131.99 80.99,-262.99 122.01,-395.001 23.98,-81 53.98,-161 70.99,-244.008 9.01,-36.992 16.99,-75 27.99,-110.992 86.02,243.011 152.01,494.001 186.02,750.001 67.98,0 135.99,0 203.98,0 -58.98,-324.009 -151.99,-642.99 -291.99,-941.001 -80,0 -160,0 -240,0 -96,314.011 -193,626.992 -289,941.001 z" /><path
         id="path62"
         style="fill:#ea232d;fill-opacity:1;fill-rule:nonzero;stroke:none"
         d="m 3087.64,1298.73 h -24.58 v 8.88 h 59.84 v -8.88 h -24.71 v -71.96 h -10.55 v 71.96" /><path
         id="path64"
         style="fill:none;stroke:#ea232d;stroke-width:0.9375;stroke-linecap:butt;stroke-linejoin:miter;stroke-miterlimit:10;stroke-dasharray:none;stroke-opacity:1"
         d="m 3087.64,1298.73 h -24.58 v 8.88 h 59.84 v -8.88 h -24.71 v -71.96 h -10.55 z" /><path
         id="path66"
         style="fill:#ea232d;fill-opacity:1;fill-rule:nonzero;stroke:none"
         d="m 3200.05,1262.27 c -0.6,11.28 -1.32,24.95 -1.32,34.9 h -0.24 c -2.87,-9.36 -6.12,-19.55 -10.19,-30.7 l -14.28,-39.22 h -7.91 l -13.19,38.49 c -3.84,11.52 -6.96,21.84 -9.24,31.43 h -0.24 c -0.24,-10.08 -0.84,-23.51 -1.56,-35.74 l -2.15,-34.66 h -9.96 l 5.64,80.84 h 13.31 l 13.79,-39.1 c 3.36,-9.95 6,-18.83 8.15,-27.23 h 0.25 c 2.16,8.15 5.04,17.03 8.63,27.23 l 14.4,39.1 h 13.31 l 5.04,-80.84 h -10.32 l -1.92,35.5" /><path
         id="path68"
         style="fill:none;stroke:#ea232d;stroke-width:0.9375;stroke-linecap:butt;stroke-linejoin:miter;stroke-miterlimit:10;stroke-dasharray:none;stroke-opacity:1"
         d="m 3200.05,1262.27 c -0.6,11.28 -1.32,24.95 -1.32,34.9 h -0.24 c -2.87,-9.36 -6.12,-19.55 -10.19,-30.7 l -14.28,-39.22 h -7.91 l -13.19,38.49 c -3.84,11.52 -6.96,21.84 -9.24,31.43 h -0.24 c -0.24,-10.08 -0.84,-23.51 -1.56,-35.74 l -2.15,-34.66 h -9.96 l 5.64,80.84 h 13.31 l 13.79,-39.1 c 3.36,-9.95 6,-18.83 8.15,-27.23 h 0.25 c 2.16,8.15 5.04,17.03 8.63,27.23 l 14.4,39.1 h 13.31 l 5.04,-80.84 h -10.32 z" /></g></g></svg>